
<svg width="100%" height="100%" viewBox="0 0 2124 2125" version="1.1" xmlns="http://www.w3.org/2000/svg"
     style="fill-rule:evenodd;clip-rule:evenodd;stroke-linejoin:round;stroke-miterlimit:2;">
  <path d="M1049.46,1722.08l0.168,0.011c-0,-0 -1.305,228.77 -1.523,233.903c-6.457,151.925 -37.766,208.66 -190.446,137.542c-17.704,-8.246 -36.971,-18.213 -57.935,-29.952l-156.074,-81.096l0.015,-0.026l-621.191,-322.432c-13.806,-7.166 -22.471,-21.426 -22.471,-36.982l0,-1051.79c-0,-15.556 8.665,-29.816 22.471,-36.982l1020.29,-529.586c12.035,-6.247 26.357,-6.247 38.391,0l1020.29,529.586c13.807,7.166 22.472,21.426 22.472,36.982l-0,1051.79c-0,15.556 -8.665,29.816 -22.472,36.982l-621.136,322.404l0.031,0.054l-156.074,81.096c-21.23,11.888 -40.72,21.958 -58.609,30.266c-152.114,70.636 -183.191,14.58 -189.639,-137.121c-0.598,-14.08 -1.586,-231.272 -1.601,-234.6l0.043,0l-0,-1340.41c-0,-7.334 3.856,-14.128 10.153,-17.888c6.297,-3.759 14.107,-3.931 20.563,-0.452l194.307,104.707c6.745,3.634 10.951,10.678 10.951,18.34l-0,475.307c-0,5.753 4.663,10.417 10.416,10.417l230.693,-0c5.753,-0 10.417,-4.664 10.417,-10.417l-0,-329.384c-0,-7.217 3.735,-13.919 9.872,-17.716c6.137,-3.797 13.802,-4.148 20.26,-0.927l208.216,103.851c7.068,3.525 11.535,10.744 11.535,18.643l-0,722.214c-0,7.899 -4.467,15.118 -11.535,18.643l-208.216,103.851c-6.458,3.221 -14.123,2.87 -20.26,-0.927c-6.137,-3.797 -9.872,-10.499 -9.872,-17.716l-0,-329.696c-0,-5.754 -4.665,-10.419 -10.419,-10.419l-230.691,-0c-2.762,-0 -5.412,1.097 -7.365,3.051c-1.954,1.953 -3.051,4.603 -3.051,7.366l-0,489.583l-0.059,0.1c1.129,51.236 1.205,65.447 43.824,47.588l496.478,-250.937c14.027,-7.089 22.871,-21.469 22.871,-37.186l0,-768.937c0,-15.717 -8.844,-30.097 -22.871,-37.187l-769.707,-389.036c-11.819,-5.973 -25.773,-5.973 -37.591,0l-769.708,389.036c-14.027,7.09 -22.871,21.47 -22.871,37.187l0,768.937c0,15.717 8.844,30.097 22.871,37.186l498.093,251.753c40.601,16.563 40.896,1.042 42.007,-49.389l0.064,0l-0,-488.698c-0,-2.763 -1.098,-5.413 -3.051,-7.366c-1.954,-1.954 -4.603,-3.051 -7.366,-3.051l-231.041,-0c-2.763,-0 -5.413,1.097 -7.366,3.051c-1.954,1.953 -3.051,4.603 -3.051,7.366l-0,329.664c-0,7.217 -3.735,13.92 -9.872,17.717c-6.137,3.797 -13.802,4.147 -20.26,0.926l-208.149,-103.817c-7.068,-3.525 -11.535,-10.744 -11.535,-18.643l0,-722.214c0,-7.899 4.467,-15.118 11.535,-18.643l208.149,-103.818c6.458,-3.221 14.123,-2.87 20.26,0.927c6.137,3.797 9.872,10.5 9.872,17.717l-0,329.35c-0,5.753 4.664,10.417 10.417,10.417l231.041,-0c5.753,-0 10.417,-4.664 10.417,-10.417l-0,-476.999c-0,-7.738 4.289,-14.839 11.138,-18.44l193.958,-101.977c6.458,-3.396 14.222,-3.165 20.467,0.607c6.245,3.772 10.062,10.537 10.062,17.833l-0,1339.32Zm24.957,0.049l-0,-0.039c-0,0 -0,0.013 0,0.039Z" style="fill:#adc38c;"/>
</svg>
